<svg width="89" height="84" viewBox="0 0 89 84" fill="none" xmlns="http://www.w3.org/2000/svg">
<path d="M74.3521 38.9238H14.6479C12.7023 38.9238 11.125 40.397 11.125 42.2143V42.5607C11.125 44.378 12.7023 45.8512 14.6479 45.8512H74.3521C76.2977 45.8512 77.875 44.378 77.875 42.5607V42.2143C77.875 40.397 76.2977 38.9238 74.3521 38.9238Z" fill="#FBFF35"/>
<path d="M74.3521 56.2427H14.6479C12.7023 56.2427 11.125 57.7159 11.125 59.5332V59.8796C11.125 61.6969 12.7023 63.1701 14.6479 63.1701H74.3521C76.2977 63.1701 77.875 61.6969 77.875 59.8796V59.5332C77.875 57.7159 76.2977 56.2427 74.3521 56.2427Z" fill="#FBFF35"/>
<path d="M74.3521 21.6055H14.6479C12.7023 21.6055 11.125 23.0787 11.125 24.896V25.2424C11.125 27.0597 12.7023 28.5329 14.6479 28.5329H74.3521C76.2977 28.5329 77.875 27.0597 77.875 25.2424V24.896C77.875 23.0787 76.2977 21.6055 74.3521 21.6055Z" fill="#FBFF35"/>
</svg>
